HIERARCHY
ROOT Hips
{
	OFFSET 0.000000 0.000000 0.000000
	CHANNELS 6 Xposition Yposition Zposition Xrotation Yrotation Zrotation
	JOINT LeftUpLeg_virtual
	{
		OFFSET 0.000000 0.000000 0.000000
		CHANNELS 3 Xrotation Yrotation Zrotation
		JOINT LeftUpLeg
		{
			OFFSET 11.394100 -6.187798 -0.413800
			CHANNELS 3 Xrotation Yrotation Zrotation
			JOINT LeftLeg
			{
				OFFSET 0.430247 -32.302673 3.732800
				CHANNELS 3 Xrotation Yrotation Zrotation
				JOINT LeftFoot
				{
					OFFSET -0.430247 -48.264931 -6.423300
					CHANNELS 3 Xrotation Yrotation Zrotation
					JOINT LeftToeBase
					{
						OFFSET 4.230900 -16.068199 23.438400
						CHANNELS 3 Xrotation Yrotation Zrotation
						JOINT LeftToe_End
						{
							OFFSET 4.510700 0.695400 19.974600
							CHANNELS 3 Xrotation Yrotation Zrotation
							End Site
							{
								OFFSET 0 0 0
							}
						}
					}
				}
			}
		}
	}
	JOINT RightUpLeg_virtual
	{
		OFFSET 0.000000 0.000000 0.000000
		CHANNELS 3 Xrotation Yrotation Zrotation
		JOINT RightUpLeg
		{
			OFFSET -11.333700 -6.187798 -0.413800
			CHANNELS 3 Xrotation Yrotation Zrotation
			JOINT RightLeg
			{
				OFFSET -0.430392 -32.302628 3.733000
				CHANNELS 3 Xrotation Yrotation Zrotation
				JOINT RightFoot
				{
					OFFSET 0.430392 -48.264973 -6.423500
					CHANNELS 3 Xrotation Yrotation Zrotation
					JOINT RightToeBase
					{
						OFFSET -4.230900 -16.068199 23.438400
						CHANNELS 3 Xrotation Yrotation Zrotation
						JOINT RightToe_End
						{
							OFFSET -4.510700 0.695400 19.974600
							CHANNELS 3 Xrotation Yrotation Zrotation
							End Site
							{
								OFFSET 0 0 0
							}
						}
					}
				}
			}
		}
	}
	JOINT Spine_virtual
	{
		OFFSET 0.000000 0.000000 0.000000
		CHANNELS 3 Xrotation Yrotation Zrotation
		JOINT Spine
		{
			OFFSET -0.002400 12.777504 0.315300
			CHANNELS 3 Xrotation Yrotation Zrotation
			JOINT Spine1
			{
				OFFSET -0.002067 5.816869 0.032633
				CHANNELS 3 Xrotation Yrotation Zrotation
				JOINT Spine1_split
				{
					OFFSET -0.002067 5.816869 0.032633
					CHANNELS 3 Xrotation Yrotation Zrotation
					JOINT Spine2
					{
						OFFSET -0.002067 5.816869 0.032633
						CHANNELS 3 Xrotation Yrotation Zrotation
						JOINT Neck_virtual
						{
							OFFSET 0.000000 0.000000 0.000000
							CHANNELS 3 Xrotation Yrotation Zrotation
							JOINT Neck
							{
								OFFSET -0.003700 21.199493 -0.826900
								CHANNELS 3 Xrotation Yrotation Zrotation
								JOINT Head
								{
									OFFSET 0.000000 20.442200 4.834800
									CHANNELS 3 Xrotation Yrotation Zrotation
									JOINT HeadTop_End
									{
										OFFSET 0.000000 34.668396 4.968400
										CHANNELS 3 Xrotation Yrotation Zrotation
										End Site
										{
											OFFSET 0 0 0
										}
									}
								}
							}
						}
						JOINT LeftShoulder_virtual
						{
							OFFSET 0.000000 0.000000 0.000000
							CHANNELS 3 Xrotation Yrotation Zrotation
							JOINT LeftShoulder
							{
								OFFSET 3.288150 8.794197 -1.372250
								CHANNELS 3 Xrotation Yrotation Zrotation
								JOINT LeftShoulder_split
								{
									OFFSET 3.288150 8.794197 -1.372250
									CHANNELS 3 Xrotation Yrotation Zrotation
									JOINT LeftArm
									{
										OFFSET 11.953299 -2.279007 -0.146200
										CHANNELS 3 Xrotation Yrotation Zrotation
										JOINT LeftForeArm
										{
											OFFSET 18.448900 0.000000 0.000000
											CHANNELS 3 Xrotation Yrotation Zrotation
											JOINT LeftHand
											{
												OFFSET 29.527798 0.000000 0.000000
												CHANNELS 3 Xrotation Yrotation Zrotation
												End Site
												{
													OFFSET 0 0 0
												}
											}
										}
									}
								}
							}
						}
						JOINT RightShoulder_virtual
						{
							OFFSET 0.000000 0.000000 0.000000
							CHANNELS 3 Xrotation Yrotation Zrotation
							JOINT RightShoulder
							{
								OFFSET -3.249400 8.794197 -1.372250
								CHANNELS 3 Xrotation Yrotation Zrotation
								JOINT RightShoulder_split
								{
									OFFSET -3.249400 8.794197 -1.372250
									CHANNELS 3 Xrotation Yrotation Zrotation
									JOINT RightArm
									{
										OFFSET -11.953299 -2.279007 -0.146200
										CHANNELS 3 Xrotation Yrotation Zrotation
										JOINT RightForeArm
										{
											OFFSET -18.448900 0.000000 0.000000
											CHANNELS 3 Xrotation Yrotation Zrotation
											JOINT RightHand
											{
												OFFSET -29.527802 0.000000 0.000000
												CHANNELS 3 Xrotation Yrotation Zrotation
												End Site
												{
													OFFSET 0 0 0
												}
											}
										}
									}
								}
							}
						}
					}
				}
			}
		}
	}
}
MOTION
Frames: 4
Frame Time: 0.03333333
6.568163 98.545929 -10.545040 0.000000 0.000000 0.000000 3.631345 13.821529 1.431602 -17.417104 10.965056 9.896948 22.494777 1.984143 2.189001 -7.030162 3.369126 -15.185298 0.931707 -5.230059 0.379023 0.000000 0.000000 0.000000 4.052338 13.862604 1.436939 -19.840824 3.492749 -1.903563 24.674217 3.852172 -3.029200 -10.850859 -6.038278 10.511274 5.615058 4.610986 -13.496829 0.000000 0.000000 0.000000 3.246695 17.211243 0.984715 -0.919082 -2.741448 0.637293 -0.648776 0.033023 0.503515 0.154973 -0.053005 -0.043104 0.000000 0.000000 0.000000 -0.708820 3.045591 0.446712 3.878472 5.456993 1.173721 -14.526095 -38.234699 -12.592790 0.000000 0.000000 0.000000 -1.867911 1.157505 0.110512 -0.608952 -11.153863 -10.736013 -2.578694 0.513085 -2.623539 23.665846 -21.333013 -63.153814 -0.429390 -21.011593 -0.740481 0.000000 0.000000 0.000000 -0.982986 1.547480 0.627223 -1.551847 0.361600 14.495738 -5.198693 -0.127718 -0.526209 15.113884 29.562172 61.432012 -6.737837 14.036122 3.837523 0.000000 0.000000 0.000000 
6.717246 98.631256 -10.510269 0.000000 0.000000 0.000000 3.601490 13.863085 1.405262 -17.388518 10.447448 9.871791 22.276582 2.059423 2.208778 -7.139911 3.475566 -14.748139 1.102457 -5.236810 0.362943 0.000000 0.000000 0.000000 4.018634 13.509245 1.422155 -19.533755 3.477189 -1.833462 24.425489 3.782782 -3.094743 -10.451970 -6.016336 10.492352 4.524484 4.790116 -13.297368 0.000000 0.000000 0.000000 3.289359 17.073881 0.911020 -0.983783 -2.695830 0.687706 -0.667936 0.088029 0.496910 0.154091 -0.004872 -0.034977 0.000000 0.000000 0.000000 -0.668224 3.083728 0.444664 3.844903 5.460457 1.378061 -14.894042 -37.838606 -12.939575 0.000000 0.000000 0.000000 -1.813921 1.208063 0.128421 -0.607326 -11.134975 -10.864526 -2.610770 0.329561 -2.641121 23.647606 -21.359856 -63.150351 -0.472927 -20.904996 -0.793297 0.000000 0.000000 0.000000 -0.975464 1.595182 0.614515 -1.595856 0.516623 14.498425 -4.736895 0.093599 -0.478749 14.985993 29.608074 61.389091 -6.726397 13.975697 3.843894 0.000000 0.000000 0.000000 
6.844127 98.733566 -10.452499 0.000000 0.000000 0.000000 3.458549 13.748600 1.331463 -17.431486 10.088020 9.881861 22.114481 2.164531 2.235339 -7.206171 3.583061 -14.493665 1.440287 -5.256507 0.389528 0.000000 0.000000 0.000000 4.037511 13.104313 1.314710 -19.146567 3.290807 -1.756988 24.229278 3.678567 -3.170495 -10.441127 -5.687934 10.690989 4.043233 5.040784 -13.703024 0.000000 0.000000 0.000000 3.264534 16.820357 0.759160 -0.934088 -2.568792 0.759674 -0.646349 0.161453 0.487564 0.157258 -0.016286 -0.050578 0.000000 0.000000 0.000000 -0.572749 3.140512 0.432250 3.923297 5.466312 1.698853 -14.974708 -37.173578 -13.188501 0.000000 0.000000 0.000000 -1.737362 1.265362 0.122620 -0.625169 -11.068356 -10.973380 -2.610896 0.291750 -2.562717 23.254967 -21.312140 -63.361807 -0.502569 -20.819605 -0.756203 0.000000 0.000000 0.000000 -0.930525 1.652483 0.590893 -1.634827 0.590517 14.503248 -4.270742 0.214336 -0.384536 14.968819 29.652860 61.110140 -6.676472 13.922571 3.759135 0.000000 0.000000 0.000000 
6.942554 98.725578 -10.437904 0.000000 0.000000 0.000000 3.274935 13.434292 1.251064 -17.485838 9.945958 9.826589 22.232093 2.238861 2.290721 -7.175793 3.691560 -14.460209 1.352212 -5.304628 0.641529 0.000000 0.000000 0.000000 4.082912 12.684777 1.186441 -18.947051 2.915559 -1.762200 24.153460 3.516675 -3.219237 -10.831838 -5.225144 11.000336 4.555650 5.298381 -14.700876 0.000000 0.000000 0.000000 3.202352 16.509465 0.633358 -0.760004 -2.381593 0.803472 -0.562160 0.250109 0.478126 0.158354 -0.083910 -0.067955 0.000000 0.000000 0.000000 -0.422871 3.210802 0.413957 4.093124 5.466407 2.112698 -14.747948 -36.258121 -13.226638 0.000000 0.000000 0.000000 -1.658754 1.335447 0.097601 -0.660816 -10.958216 -11.045079 -2.625274 0.286482 -2.437483 22.585605 -21.269629 -63.643860 -0.548120 -20.806325 -0.663624 0.000000 0.000000 0.000000 -0.847134 1.710430 0.559974 -1.657903 0.606712 14.485629 -3.817792 0.307218 -0.269093 15.012109 29.747076 60.704146 -6.615213 13.887017 3.610344 0.000000 0.000000 0.000000 
